<svg id="圖層_1" data-name="圖層 1" xmlns="http://www.w3.org/2000/svg" viewBox="0 0 784.37 129.67"><path d="M234,68.63a4.53,4.53,0,0,1,0,9.06H28.37a4.53,4.53,0,1,1,0-9.06Z" transform="translate(-8.43 -21.23)" style="fill:#6dcc93"/><polygon points="82.36 79.73 19.61 79.73 19.61 65.29 19.94 65.29 50.72 65.29 82.36 79.73" style="fill:#ea6081"/><polygon points="225.89 65.29 225.89 79.73 180.91 79.73 187.5 65.29 225.55 65.29 225.89 65.29" style="fill:#ea6081"/><path d="M253.91,105.38v40.53a4.41,4.41,0,0,1-4.41,4.42H12.84a4.41,4.41,0,0,1-4.41-4.42V105.38A4.41,4.41,0,0,1,12.84,101H19.2V82.87a13.3,13.3,0,0,1-3.4-14.24h-3a4.41,4.41,0,0,1-4.41-4.42V25.65a4.41,4.41,0,0,1,4.41-4.42H249.5a4.41,4.41,0,0,1,4.41,4.42V64.21a4.41,4.41,0,0,1-4.41,4.42h-2.95a13.34,13.34,0,0,1-3.41,14.24V101h6.36A4.41,4.41,0,0,1,253.91,105.38Zm-8.83,36.12V109.8H185.3l-11.13,24.38a4.4,4.4,0,0,1-5.84,2.18l-58.2-26.56H17.26v31.7Zm0-81.71V30.06H17.26V59.79Zm-6.57,13.37A4.53,4.53,0,0,0,234,68.63H28.37a4.53,4.53,0,1,0,0,9.06H234A4.53,4.53,0,0,0,238.51,73.16Zm-4.2,27.8V86.52H195.93L189.33,101ZM168,126.49l18.25-40H80.41ZM28,101H90.78L59.15,86.52H28V101Z" transform="translate(-8.43 -21.23)" style="fill:#4d4d4d"/><path d="M245.08,109.8v31.7H17.26V109.8h92.87l58.2,26.56a4.4,4.4,0,0,0,5.84-2.18L185.3,109.8Z" transform="translate(-8.43 -21.23)" style="fill:#e29e30"/><rect x="8.83" y="8.83" width="227.82" height="29.73" style="fill:#e29e30"/><polygon points="177.79 65.29 159.55 105.26 71.98 65.29 177.79 65.29" style="fill:#e0c732"/><text transform="translate(273.41 82.3)" style="font-size:90px;fill:#ce8d2e;font-family:SegoeScript-Bold, Segoe Script;font-weight:700">C<tspan x="66.36" y="0" style="font-size:72px">O</tspan><tspan x="124.22" y="0" style="font-size:71.57463073730469px">ME </tspan></text><text transform="translate(644.66 120.27)" style="font-size:25px;fill:#e29e30;font-family:jf-openhuninn-1.1;letter-spacing:0.16em">我們都在</text><text transform="translate(302.32 120.27)" style="font-size:25px;fill:#e29e30;font-family:jf-openhuninn-1.1;letter-spacing:0.16em">睡多<tspan x="58" y="0" style="letter-spacing:0.345em">晚</tspan></text><text transform="translate(483.26 122.66)" style="font-size:25px;fill:#e29e30;font-family:jf-openhuninn-1.1;letter-spacing:0.16em">起多晚</text><text transform="translate(533.31 79.73)" style="font-size:90px;fill:#ce8d2e;font-family:SegoeScript-Bold, Segoe Script;font-weight:700">C<tspan x="66.36" y="0" style="font-size:71.57463073730469px">OME</tspan></text></svg>